<svg width="481" height="652" viewBox="0 0 481 652" fill="none" xmlns="http://www.w3.org/2000/svg">
<circle cx="31.3608" cy="527.102" r="31.3607" transform="rotate(180 31.3608 527.102)" fill="#F5F5F5"/>
<circle cx="31.3607" cy="422.567" r="31.3607" transform="rotate(180 31.3607 422.567)" fill="#F5F5F5"/>
<circle cx="31.3607" cy="318.031" r="31.3607" transform="rotate(180 31.3607 318.031)" fill="#F5F5F5"/>
<circle cx="31.3608" cy="620.339" r="31.3607" transform="rotate(180 31.3608 620.339)" fill="#F5F5F5"/>
<circle cx="80.8765" cy="224.795" r="31.3607" transform="rotate(180 80.8765 224.795)" fill="#F5F5F5"/>
<circle cx="80.8764" cy="120.26" r="31.3607" transform="rotate(180 80.8764 120.26)" fill="#F5F5F5"/>
<circle cx="397.517" cy="224.795" r="31.3607" transform="rotate(180 397.517 224.795)" fill="#F5F5F5"/>
<circle cx="397.517" cy="120.26" r="31.3607" transform="rotate(180 397.517 120.26)" fill="#F5F5F5"/>
<circle cx="135.605" cy="31.3606" r="31.3607" transform="rotate(180 135.605 31.3606)" fill="#F5F5F5"/>
<circle cx="345.395" cy="31.3606" r="31.3607" transform="rotate(180 345.395 31.3606)" fill="#F5F5F5"/>
<circle cx="241.151" cy="31.3606" r="31.3607" transform="rotate(180 241.151 31.3606)" fill="#F5F5F5"/>
<circle cx="449.639" cy="527.102" r="31.3607" transform="rotate(180 449.639 527.102)" fill="#F5F5F5"/>
<circle cx="449.639" cy="422.567" r="31.3607" transform="rotate(180 449.639 422.567)" fill="#F5F5F5"/>
<circle cx="449.639" cy="318.031" r="31.3607" transform="rotate(180 449.639 318.031)" fill="#F5F5F5"/>
<circle cx="449.639" cy="620.339" r="31.3607" transform="rotate(180 449.639 620.339)" fill="#F5F5F5"/>
<circle cx="135.605" cy="318.031" r="31.3607" transform="rotate(-90 135.605 318.031)" fill="#F5F5F5"/>
<circle cx="240.14" cy="318.031" r="31.3607" transform="rotate(-90 240.14 318.031)" fill="#F5F5F5"/>
<circle cx="344.676" cy="318.031" r="31.3607" transform="rotate(-90 344.676 318.031)" fill="#F5F5F5"/>
<circle cx="135.605" cy="620.339" r="31.3607" transform="rotate(-90 135.605 620.339)" fill="#F5F5F5"/>
<circle cx="240.14" cy="620.339" r="31.3607" transform="rotate(-90 240.14 620.339)" fill="#F5F5F5"/>
<circle cx="344.676" cy="620.339" r="31.3607" transform="rotate(-90 344.676 620.339)" fill="#F5F5F5"/>
</svg>
